<svg id="visual" viewBox="0 0 1280 780" width="1280" height="780" xmlns="http://www.w3.org/2000/svg" xmlns:xlink="http://www.w3.org/1999/xlink" version="1.1"><path d="M0 290L53.3 279.5C106.7 269 213.3 248 320 255.7C426.7 263.3 533.3 299.7 640 297.2C746.7 294.7 853.3 253.3 960 243C1066.7 232.7 1173.3 253.3 1226.7 263.7L1280 274L1280 0L1226.7 0C1173.3 0 1066.7 0 960 0C853.3 0 746.7 0 640 0C533.3 0 426.7 0 320 0C213.3 0 106.7 0 53.3 0L0 0Z" fill="#eeeeee"></path><path d="M0 492L53.3 477.8C106.7 463.7 213.3 435.3 320 425C426.7 414.7 533.3 422.3 640 404C746.7 385.7 853.3 341.3 960 340C1066.7 338.7 1173.3 380.3 1226.7 401.2L1280 422L1280 272L1226.7 261.7C1173.3 251.3 1066.7 230.7 960 241C853.3 251.3 746.7 292.7 640 295.2C533.3 297.7 426.7 261.3 320 253.7C213.3 246 106.7 267 53.3 277.5L0 288Z" fill="#e8e8e8"></path><path d="M0 703L53.3 701.7C106.7 700.3 213.3 697.7 320 684.7C426.7 671.7 533.3 648.3 640 635.3C746.7 622.3 853.3 619.7 960 617C1066.7 614.3 1173.3 611.7 1226.7 610.3L1280 609L1280 420L1226.7 399.2C1173.3 378.3 1066.7 336.7 960 338C853.3 339.3 746.7 383.7 640 402C533.3 420.3 426.7 412.7 320 423C213.3 433.3 106.7 461.7 53.3 475.8L0 490Z" fill="#e2e2e2"></path><path d="M0 781L53.3 781C106.7 781 213.3 781 320 781C426.7 781 533.3 781 640 781C746.7 781 853.3 781 960 781C1066.7 781 1173.3 781 1226.7 781L1280 781L1280 607L1226.7 608.3C1173.3 609.7 1066.7 612.3 960 615C853.3 617.7 746.7 620.3 640 633.3C533.3 646.3 426.7 669.7 320 682.7C213.3 695.7 106.7 698.3 53.3 699.7L0 701Z" fill="#dddddd"></path></svg>