<?xml version="1.0" encoding="utf-8"?>
<svg width="473.75598px" height="147.3081px" viewBox="0 0 473.75598 147.3081" version="1.1" xmlns:xlink="http://www.w3.org/1999/xlink" xmlns="http://www.w3.org/2000/svg">
  <defs>
    <path d="M434.804 109.94L386.064 109.94L386.064 109.08L398.304 109.08L398.304 44.0601L386.064 44.0601L386.064 43.2001L398.304 43.2001L398.304 36.0341C398.304 29.2214 399.741 23.0985 402.617 17.6653C405.496 12.2208 409.559 7.9165 414.805 4.75208C420.056 1.58569 426.256 0.00170898 433.402 0C437.672 -0.000854492 441.301 0.862305 444.291 2.58948C447.279 4.31543 449.564 6.45569 451.147 9.0105C452.732 11.5703 453.524 14.1222 453.524 16.666C453.524 20.5831 452.307 23.5747 449.872 25.6407C447.45 27.6958 444.744 28.7235 441.754 28.724C440.04 28.7235 438.303 28.3447 436.543 27.5876C434.774 26.8252 433.288 25.6344 432.085 24.0151C430.876 22.387 430.272 20.2972 430.272 17.7461C430.272 14.2113 431.442 11.4712 433.782 9.52576C436.109 7.59106 438.646 6.62378 441.394 6.62402C443.301 6.62378 445.17 7.0144 447 7.79602C448.803 8.56531 450.299 9.67615 451.489 11.1287C451.127 10.3331 450.682 9.56323 450.154 8.81885C448.474 6.453 446.248 4.55896 443.476 3.13647C440.705 1.71387 437.707 1.00305 434.482 1.00403C430.572 1.00562 427.43 2.31042 425.055 4.91821C422.66 7.55261 420.928 11.1873 419.858 15.8223C418.782 20.4867 418.244 25.856 418.244 31.9301L418.244 43.2001L437.684 43.2001L437.684 44.0601L418.244 44.0601L418.244 109.08L434.804 109.08L434.804 109.94L434.804 109.94ZM398.804 109.44L398.804 36.0341C398.805 29.3047 400.223 23.2596 403.059 17.8989C405.895 12.5383 409.897 8.29871 415.063 5.18005C420.234 2.05908 426.347 0.499146 433.402 0.5C433.637 0.5 433.872 0.502686 434.104 0.507935C430.221 0.589233 427.081 1.94714 424.685 4.58179C422.231 7.27893 420.46 10.9883 419.37 15.7097C418.287 20.4076 417.745 25.8143 417.744 31.9301L417.744 109.44L398.804 109.44L398.804 109.44ZM453.024 16.666C453.024 15.5598 452.867 14.4504 452.554 13.3379L452.286 13.4247C452.01 12.7441 451.639 12.1128 451.171 11.5306C450.022 10.1005 448.567 9.00891 446.804 8.25598C445.036 7.5011 443.233 7.12378 441.394 7.12402C438.767 7.12378 436.336 8.05249 434.102 9.91028C431.881 11.7556 430.771 14.3676 430.772 17.7461C430.772 20.1879 431.344 22.1782 432.487 23.717C433.637 25.2655 435.055 26.4026 436.741 27.1284C438.437 27.859 440.108 28.2241 441.754 28.224C444.622 28.2235 447.22 27.2354 449.548 25.2594C451.865 23.2939 453.024 20.4294 453.024 16.666L453.024 16.666ZM84.312 88.5601L85.1131 88.5601L85.1633 88.7445C86.354 93.1274 88.2468 96.9495 90.8416 100.21C93.433 103.468 96.5721 105.989 100.259 107.773C103.945 109.556 108.025 110.448 112.498 110.448C115.541 110.448 118.248 110.009 120.619 109.132C122.976 108.259 124.812 107.001 126.127 105.358C127.434 103.724 128.088 101.712 128.088 99.322C128.088 96.7172 127.101 94.6593 125.126 93.1487C123.108 91.6034 120.504 90.2961 117.314 89.2271C114.125 88.1581 110.707 87.0547 107.06 85.9167C103.415 84.7813 99.9801 83.3348 96.7544 81.5775C93.5042 79.8062 90.8477 77.4407 88.7849 74.481C86.7149 71.511 85.6799 67.6473 85.68 62.89C85.6802 59.051 86.6035 55.5411 88.4498 52.3606C90.2978 49.1766 92.9091 46.6377 96.2836 44.744C99.6581 42.8513 103.647 41.9047 108.25 41.9041C111.689 41.9033 114.792 42.4614 117.56 43.5782C120.255 44.6644 122.629 46.0765 124.682 47.8146L133.372 41.76L134.06 41.76L134.06 62.42L133.278 62.42L133.216 62.2589C131.928 58.8718 130.163 55.7006 127.923 52.7451C125.686 49.7943 122.939 47.3925 119.682 45.5393C116.432 43.6893 112.645 42.7642 108.322 42.764C105.572 42.7642 103.228 43.1659 101.29 43.969C99.3649 44.7675 97.8882 45.8677 96.8596 47.2699C95.836 48.6659 95.3241 50.2487 95.324 52.0181C95.3239 54.5741 96.3466 56.6195 98.392 58.1541C100.482 59.7197 103.184 61.0878 106.497 62.2583C109.806 63.4264 113.332 64.6136 117.075 65.8202C120.808 67.0251 124.35 68.5188 127.7 70.3014C131.068 72.0944 133.82 74.4343 135.955 77.3214C138.1 80.2208 139.172 83.9543 139.172 88.5221C139.172 93.569 137.908 97.7947 135.379 101.199C132.856 104.594 129.582 107.141 125.555 108.84C121.542 110.534 117.309 111.381 112.858 111.38C109.034 111.381 105.513 110.776 102.294 109.564C99.1383 108.376 96.3203 106.702 93.84 104.542L85.0075 111.38L84.312 111.38L84.312 88.5601L84.312 88.5601ZM263.084 78.01L263.084 109.08L273.74 109.08L273.74 109.94L233.064 109.94L233.064 109.08L242.496 109.08L242.496 44.0601L233.064 44.0601L233.064 43.2001L263.084 43.2001L263.084 64.8635C263.121 64.5764 263.159 64.2911 263.198 64.0077C263.802 59.6631 264.84 55.825 266.313 52.493C267.796 49.1375 269.839 46.5117 272.443 44.6161C275.056 42.7123 278.333 41.7603 282.274 41.76C285.634 41.7603 288.487 42.5052 290.832 43.995C293.174 45.4818 294.967 47.4094 296.211 49.7777C297.454 52.1425 298.076 54.6412 298.076 57.274C298.076 60.6973 296.963 63.6567 294.737 66.1525C292.502 68.6567 289.548 69.9086 285.874 69.9081C282.157 69.9086 279.158 68.7682 276.877 66.4868C274.596 64.2083 273.456 61.5214 273.456 58.426C273.456 54.8052 274.634 51.8417 276.987 49.5355C279.34 47.2323 282.23 46.0804 285.658 46.0801C288.055 46.0804 290.173 46.62 292.013 47.6985C293.554 48.6029 294.821 49.7245 295.811 51.063C295.686 50.7823 295.551 50.5029 295.408 50.2247C294.252 47.9841 292.565 46.1561 290.347 44.7407C288.133 43.3268 285.442 42.6199 282.274 42.62C278.491 42.6199 275.361 43.5511 272.884 45.4139C270.399 47.2842 268.446 49.843 267.023 53.0905C265.593 56.3574 264.579 60.1274 263.982 64.4006C263.384 68.6847 263.084 73.2212 263.084 78.01L263.084 78.01ZM50.2144 110.18C47.6709 109.373 45.6507 108.025 44.1541 106.137C42.654 104.243 41.904 101.707 41.904 98.53L41.904 93.1594C41.521 95.0726 41.0101 96.8568 40.3712 98.512C38.7695 102.662 36.3386 105.845 33.0784 108.061C29.8215 110.272 25.7187 111.378 20.77 111.38C14.4674 111.381 9.43312 109.765 5.66721 106.532C1.88918 103.288 0.000106812 98.8931 0 93.3461C-0.000213623 86.8202 2.79912 81.8174 8.39799 78.3378C13.9599 74.8799 21.8759 73.1514 32.146 73.1521L41.904 73.1521L41.904 65.842C41.904 62.3995 41.5933 58.9342 40.9719 55.4459C40.3555 51.985 39.101 49.0951 37.2083 46.7761C35.3389 44.4844 32.5235 43.339 28.762 43.3401C26.472 43.3403 24.005 43.6146 21.3607 44.1628C18.7175 44.7109 16.2182 45.5797 13.8627 46.7692C12.518 47.4478 11.3177 48.2277 10.2618 49.1088C12.2027 47.9534 14.3615 47.3759 16.738 47.3761C19.9588 47.3757 22.7673 48.2313 25.1633 49.9426C27.5851 51.6727 28.7961 54.1646 28.796 57.4181C28.7961 60.9106 27.5618 63.5579 25.0934 65.36C22.6505 67.1426 19.8654 68.0345 16.738 68.036C13.4133 68.0359 10.6363 67.1168 8.407 65.2789C6.16231 63.428 5.03998 60.9037 5.03999 57.7061C5.03998 54.9597 5.83832 52.5916 7.43503 50.6016C9.01898 48.6281 11.1361 47.009 13.7863 45.7445C16.4188 44.4895 19.3554 43.5587 22.5961 42.9524C25.8242 42.3478 29.0794 42.0464 32.362 42.0481C39.7442 42.049 45.6473 43.0768 50.0713 45.1313C54.5145 47.194 57.7086 50.0259 59.6539 53.6272C61.5937 57.2186 62.5638 61.2902 62.564 65.842L62.564 102.994C62.564 104.524 62.9562 105.832 63.7406 106.916C64.5069 107.975 65.7834 108.504 67.57 108.504C68.9124 108.504 70.5956 107.858 72.6193 106.563C74.6411 105.272 76.2902 103.231 77.5667 100.442L77.6658 100.225L78.4847 100.553L78.3838 100.789C76.92 104.205 74.4217 106.826 70.8889 108.652C67.3732 110.472 63.2909 111.381 58.642 111.38C55.546 111.38 52.7368 110.98 50.2144 110.18L50.2144 110.18ZM355.782 110.18C353.238 109.374 351.218 108.027 349.722 106.137C348.222 104.243 347.472 101.707 347.472 98.53L347.472 93.1591C347.089 95.0725 346.578 96.8568 345.939 98.512C344.337 102.662 341.906 105.845 338.646 108.061C335.389 110.272 331.286 111.378 326.338 111.38C320.035 111.381 315.001 109.765 311.235 106.532C307.457 103.288 305.568 98.8931 305.568 93.3461C305.567 86.8202 308.367 81.8174 313.966 78.3378C319.528 74.8851 327.444 73.1566 337.714 73.1521L347.472 73.1521L347.472 65.842C347.472 62.4022 347.162 58.9368 346.54 55.4459C345.924 51.9863 344.669 49.0963 342.776 46.7761C340.907 44.4869 338.092 43.3417 334.33 43.3401C332.04 43.3403 329.573 43.6146 326.929 44.1628C324.285 44.7109 321.786 45.5797 319.431 46.7692C318.088 47.4478 316.889 48.2269 315.834 49.1064C317.774 47.9526 319.931 47.3759 322.306 47.3761C325.527 47.3757 328.335 48.2313 330.731 49.9426C333.153 51.6727 334.364 54.1646 334.364 57.4181C334.364 60.9093 333.13 63.5566 330.661 65.36C328.218 67.1438 325.433 68.0359 322.306 68.036C318.982 68.0359 316.205 67.1168 313.975 65.2789C311.73 63.4293 310.608 60.905 310.608 57.7061C310.608 54.9597 311.406 52.5916 313.003 50.6016C314.586 48.6281 316.704 47.009 319.354 45.7445C321.988 44.4895 324.924 43.5587 328.164 42.9524C331.392 42.3505 334.647 42.049 337.93 42.0481C345.312 42.049 351.216 43.0768 355.639 45.1313C360.082 47.1965 363.276 50.0284 365.222 53.6272C367.162 57.2186 368.132 61.2902 368.132 65.842L368.132 102.994C368.132 104.524 368.524 105.832 369.309 106.916C370.075 107.975 371.351 108.504 373.138 108.504C374.48 108.504 376.163 107.858 378.187 106.563C380.209 105.27 381.858 103.23 383.135 100.442L383.234 100.225L384.053 100.553L383.952 100.789C382.489 104.202 379.991 106.823 376.457 108.652C372.942 110.469 368.859 111.378 364.21 111.38C361.114 111.38 358.305 110.98 355.782 110.18L355.782 110.18ZM124.65 48.4459L133.528 42.26L133.56 42.26L133.56 61.7605C132.266 58.4508 130.52 55.345 128.321 52.4431C126.85 50.5018 125.161 48.7936 123.256 47.3185C123.684 47.639 124.1 47.9727 124.503 48.3195L124.65 48.4459L124.65 48.4459ZM42.404 90.0028L42.075 89.983C42.2943 88.071 42.404 85.9761 42.404 83.6981L42.404 65.842C42.4041 62.371 42.0909 58.8763 41.4641 55.3583C40.8324 51.8138 39.5429 48.8478 37.5957 46.46C35.6262 44.0482 32.6817 42.8417 28.762 42.8401C27.5611 42.8402 26.3127 42.9146 25.0169 43.0629C27.4497 42.7203 29.8981 42.5487 32.362 42.5481C39.6709 42.549 45.5038 43.5612 49.8607 45.5847C54.2037 47.6002 57.3215 50.3604 59.2141 53.865C61.1141 57.3785 62.0641 61.371 62.064 65.842L62.064 102.994C62.064 104.633 62.4878 106.037 63.3354 107.208C64.2014 108.406 65.613 109.004 67.57 109.004C68.4424 109.003 69.4372 108.756 70.5544 108.262C67.1344 110.006 63.1636 110.878 58.642 110.88C55.5974 110.88 52.8386 110.488 50.3656 109.704C47.9192 108.928 45.9793 107.635 44.546 105.827C43.118 104.025 42.404 101.592 42.404 98.53L42.404 90.0028L42.404 90.0028ZM347.972 90.0027L347.643 89.9829C347.862 88.0709 347.972 85.9761 347.972 83.6981L347.972 65.842C347.972 62.371 347.659 58.8763 347.032 55.3583C346.401 51.8138 345.112 48.8478 343.164 46.46C341.194 44.0457 338.25 42.839 334.33 42.8401C333.129 42.8402 331.88 42.9146 330.585 43.0629C333.018 42.7203 335.466 42.5487 337.93 42.5481C345.238 42.549 351.071 43.5612 355.429 45.5847C359.772 47.6029 362.889 50.3629 364.782 53.865C366.682 57.3812 367.632 61.3735 367.632 65.842L367.632 102.994C367.632 104.633 368.056 106.037 368.903 107.208C369.77 108.406 371.181 109.004 373.138 109.004C374.011 109.003 375.006 108.756 376.124 108.261C372.704 110.008 368.732 110.881 364.21 110.88C361.165 110.88 358.406 110.488 355.934 109.704C353.487 108.928 351.547 107.635 350.114 105.827C348.686 104.025 347.972 101.592 347.972 98.53L347.972 90.0027L347.972 90.0027ZM96.5283 45.1801C98.4888 44.0806 100.664 43.3076 103.055 42.8613C102.364 43.0376 101.712 43.2528 101.098 43.5071C99.0872 44.34 97.5399 45.4957 96.4564 46.9742C95.3682 48.458 94.8241 50.1393 94.824 52.0181C94.8239 54.7408 95.9133 56.9194 98.092 58.554C100.223 60.1525 102.97 61.5444 106.331 62.7297C109.647 63.8986 113.177 65.0874 116.921 66.296C120.626 67.491 124.141 68.9733 127.465 70.7428C130.767 72.4993 133.463 74.7913 135.553 77.6188C137.632 80.4319 138.672 84.0664 138.672 88.5221C138.672 93.4596 137.44 97.5859 134.977 100.901C132.509 104.224 129.304 106.717 125.361 108.38C122.442 109.61 119.406 110.386 116.251 110.708C117.878 110.489 119.392 110.12 120.793 109.601C123.237 108.697 125.145 107.387 126.517 105.67C127.898 103.945 128.588 101.829 128.588 99.322C128.588 96.5518 127.535 94.3616 125.43 92.7515C123.368 91.1766 120.716 89.8439 117.474 88.7532C114.281 87.6798 110.859 86.5753 107.208 85.4395C103.595 84.3123 100.19 82.8787 96.9936 81.1385C93.8124 79.4047 91.2129 77.0902 89.1951 74.1951C87.185 71.3115 86.1799 67.5432 86.18 62.89C86.1799 59.1421 87.0807 55.7159 88.8822 52.6116C90.6845 49.505 93.2332 47.0278 96.5283 45.1801L96.5283 45.1801ZM198.52 88.3699L218.67 44.0601L204.552 44.0601L204.552 43.2001L231.476 43.2001L231.476 44.0601L219.723 44.0601L199.046 89.4105L199.104 89.5261L195.656 96.8453L176.949 137.875C175.688 140.59 174.134 142.835 172.287 144.61C170.415 146.411 167.813 147.31 164.482 147.308C162.619 147.307 160.831 146.891 159.117 146.059C157.397 145.223 155.973 143.983 154.844 142.34C153.711 140.689 153.144 138.638 153.144 136.186C153.144 133.93 153.685 131.941 154.766 130.221C155.845 128.505 157.28 127.156 159.07 126.175C160.859 125.194 162.831 124.704 164.986 124.704C167.197 124.704 169.234 125.318 171.099 126.545C172.962 127.771 174.396 129.424 175.399 131.505C176.197 133.16 176.54 134.973 176.429 136.946L187.297 113.049L151.514 44.0601L142.992 44.0601L142.992 43.2001L189.932 43.2001L189.932 44.0601L176.121 44.0601L198.52 88.3699L198.52 88.3699ZM198.308 89.0604L198.491 89.4218L198.544 89.5254L198.548 89.5339L195.201 96.6378L187.785 112.904L151.891 43.7001L175.378 43.7001L198.308 89.0604L198.308 89.0604ZM262.584 78.01L262.584 109.44L242.996 109.44L242.996 43.7001L262.584 43.7001L262.584 69.861L262.889 69.8722C262.686 72.4994 262.584 75.212 262.584 78.01L262.584 78.01ZM296.698 53.6111L297.107 53.4747C297.42 54.7075 297.576 55.9739 297.576 57.274C297.576 60.5696 296.505 63.4182 294.363 65.8197C292.229 68.2124 289.399 69.4086 285.874 69.4081C282.295 69.4086 279.414 68.317 277.231 66.1333C275.048 63.9498 273.956 61.3807 273.956 58.426C273.956 54.9458 275.083 52.1013 277.337 49.8927C279.592 47.686 282.366 46.5818 285.658 46.5801C287.964 46.5792 289.998 47.0957 291.759 48.1296C293.523 49.1647 294.911 50.4929 295.922 52.1143C296.227 52.6036 296.485 53.1025 296.698 53.6111L296.698 53.6111ZM5.53999 57.7061C5.54012 55.4713 6.09042 53.5005 7.19092 51.7936L7.55013 52.0541C7.96689 51.5315 8.45399 51.0442 9.01141 50.5923C11.2448 48.7825 13.8203 47.8771 16.738 47.8761C19.8517 47.8757 22.5633 48.7003 24.8727 50.3496C27.1549 51.9789 28.2961 54.3351 28.296 57.4181C28.2961 60.7413 27.1302 63.254 24.7986 64.9562C22.4436 66.6759 19.7567 67.5359 16.738 67.536C13.5331 67.5371 10.8621 66.6563 8.72499 64.8932C6.60181 63.1418 5.54013 60.7462 5.53999 57.7061L5.53999 57.7061ZM311.108 57.7061C311.108 55.4703 311.658 53.4995 312.759 51.7935L313.118 52.0541C313.535 51.5315 314.022 51.0442 314.579 50.5923C316.812 48.7825 319.388 47.8771 322.306 47.8761C325.42 47.8757 328.131 48.7003 330.441 50.3496C332.723 51.9789 333.865 54.3351 333.864 57.4181C333.864 60.7413 332.698 63.254 330.367 64.9562C328.011 66.6759 325.324 67.5359 322.306 67.536C319.101 67.5371 316.43 66.6563 314.293 64.8932C312.17 63.1418 311.108 60.7462 311.108 57.7061L311.108 57.7061ZM36.4497 103.363C37.6648 102.309 38.7123 100.889 39.5921 99.1044C38.0316 102.782 35.7667 105.63 32.7976 107.647C29.6253 109.801 25.6162 110.878 20.77 110.88C14.5908 110.881 9.66502 109.305 5.9928 106.152C2.33104 103.008 0.500107 98.7395 0.5 93.3461C0.499786 87.0077 3.22046 82.1465 8.662 78.7623C14.1436 75.3547 21.9716 73.6514 32.146 73.6521L34.8366 73.6521C32.1658 73.9946 29.9527 74.9657 28.1975 76.5654C25.9825 78.5861 24.3879 80.9962 23.4139 83.7959C22.4447 86.5822 21.9601 89.1895 21.96 91.618C21.9599 93.8939 22.2142 96.109 22.7227 98.2634C23.2363 100.438 24.1068 102.226 25.3341 103.627C26.5835 105.052 28.2541 105.764 30.346 105.764C32.5679 105.764 34.6025 104.964 36.4497 103.363L36.4497 103.363ZM342.018 103.363C343.232 102.311 344.279 100.893 345.158 99.1095C343.597 102.787 341.333 105.633 338.366 107.647C335.193 109.801 331.184 110.878 326.338 110.88C320.159 110.881 315.233 109.305 311.561 106.152C307.899 103.008 306.068 98.7395 306.068 93.3461C306.067 87.0077 308.788 82.1465 314.23 78.7623C319.711 75.3547 327.539 73.6514 337.714 73.6521L340.405 73.6521C337.734 73.9946 335.521 74.9657 333.766 76.5654C331.551 78.5847 329.956 80.9949 328.982 83.7959C328.013 86.5822 327.528 89.1895 327.528 91.618C327.528 93.8939 327.782 96.109 328.291 98.2634C328.804 100.44 329.674 102.228 330.902 103.627C332.151 105.051 333.822 105.763 335.914 105.764C338.136 105.763 340.17 104.963 342.018 103.363L342.018 103.363ZM37.114 74.0121L41.904 74.0121L41.904 83.6981C41.904 88.6641 41.3801 92.7421 40.3325 95.932C39.291 99.104 37.8875 101.455 36.1223 102.985C34.369 104.505 32.4436 105.264 30.346 105.264C28.4052 105.264 26.8599 104.609 25.7099 103.297C24.5373 101.96 23.7038 100.244 23.2093 98.1487C22.7097 96.0317 22.4599 93.8549 22.46 91.618C22.4599 89.2455 22.9353 86.6929 23.8861 83.9602C24.8324 81.2397 26.3819 78.8979 28.5345 76.9348C30.6709 74.9865 33.5308 74.0122 37.114 74.0121L37.114 74.0121ZM347.472 83.6981L347.472 74.0121L342.682 74.0121C339.099 74.0135 336.239 74.9878 334.102 76.9348C331.95 78.8979 330.4 81.2397 329.454 83.9602C328.503 86.6942 328.028 89.2468 328.028 91.618C328.028 93.8535 328.278 96.0304 328.777 98.1487C329.272 100.244 330.105 101.96 331.278 103.297C332.428 104.609 333.973 105.264 335.914 105.264C338.011 105.264 339.937 104.505 341.69 102.985C343.455 101.455 344.859 99.104 345.9 95.932C346.948 92.7395 347.472 88.6615 347.472 83.6981L347.472 83.6981ZM453.901 109.58C451.921 108.383 450.333 106.782 449.135 104.778C447.936 102.772 447.336 100.569 447.336 98.17C447.336 95.7732 447.935 93.5588 449.135 91.527C450.331 89.499 451.92 87.8861 453.901 86.6882C455.885 85.4889 458.1 84.8889 460.546 84.8881C462.943 84.8876 465.158 85.4872 467.189 86.6868C469.219 87.8843 470.821 89.4983 471.994 91.5289C473.169 93.5596 473.756 95.7732 473.756 98.17C473.756 100.568 473.169 102.77 471.994 104.776C470.819 106.783 469.218 108.384 467.189 109.581C465.158 110.781 462.943 111.381 460.546 111.38C458.1 111.381 455.885 110.781 453.901 109.58L453.901 109.58ZM454.159 109.152C456.064 110.304 458.193 110.88 460.546 110.88C462.852 110.88 464.982 110.303 466.935 109.151C468.89 107.997 470.432 106.455 471.562 104.524C472.691 102.596 473.256 100.478 473.256 98.17C473.256 95.8618 472.691 93.7314 471.562 91.7792C470.431 89.8252 468.889 88.2714 466.935 87.1174C464.982 85.9653 462.852 85.3889 460.546 85.3881C458.193 85.3876 456.064 85.9635 454.159 87.116C452.251 88.2709 450.719 89.8259 449.565 91.7811C448.412 93.7347 447.836 95.8644 447.836 98.17C447.836 100.476 448.412 102.594 449.565 104.522C450.72 106.454 452.251 107.998 454.159 109.152L454.159 109.152ZM90.4504 100.522C91.4597 101.791 92.5507 102.95 93.7236 104L84.8366 110.88L84.812 110.88L84.812 89.3463C86.027 93.5967 87.9065 97.3219 90.4504 100.522L90.4504 100.522ZM171.941 144.25C173.54 142.713 174.916 140.811 176.068 138.544L175.756 138.448C176.179 135.957 175.91 133.715 174.949 131.723C173.985 129.724 172.611 128.138 170.825 126.963C169.043 125.79 167.097 125.204 164.986 125.204C162.917 125.204 161.025 125.674 159.31 126.613C157.596 127.552 156.223 128.844 155.19 130.487C154.159 132.126 153.644 134.026 153.644 136.186C153.644 138.535 154.181 140.492 155.256 142.057C156.335 143.629 157.695 144.813 159.335 145.609C160.98 146.409 162.696 146.809 164.482 146.808C167.679 146.807 170.165 145.955 171.941 144.25L171.941 144.25Z" id="path_1" />
    <clipPath id="clip_1">
      <use xlink:href="#path_1" />
    </clipPath>
  </defs>
  <g id="Group">
    <path d="M58.642 111.13C55.57 111.13 52.786 110.734 50.29 109.942C47.794 109.15 45.814 107.83 44.35 105.982C42.886 104.134 42.154 101.65 42.154 98.53L42.154 65.842C42.154 62.386 41.842 58.906 41.218 55.402C40.594 51.898 39.322 48.97 37.402 46.618C35.482 44.266 32.602 43.09 28.762 43.09C26.458 43.09 23.974 43.366 21.31 43.918C18.646 44.47 16.126 45.346 13.75 46.546C11.374 47.746 9.442 49.258 7.954 51.082C6.466 52.906 5.722 55.114 5.722 57.706L5.434 57.706C5.434 54.682 6.574 52.246 8.854 50.398C11.134 48.55 13.762 47.626 16.738 47.626C19.906 47.626 22.666 48.466 25.018 50.146C27.37 51.826 28.546 54.25 28.546 57.418C28.546 60.826 27.346 63.406 24.946 65.158C22.546 66.91 19.81 67.786 16.738 67.786C13.474 67.786 10.75 66.886 8.566 65.086C6.382 63.286 5.29 60.826 5.29 57.706C5.29 55.018 6.07 52.702 7.63 50.758C9.19 48.814 11.278 47.218 13.894 45.97C16.51 44.722 19.426 43.798 22.642 43.198C25.858 42.598 29.098 42.298 32.362 42.298C39.706 42.298 45.574 43.318 49.966 45.358C54.358 47.398 57.514 50.194 59.434 53.746C61.354 57.298 62.314 61.33 62.314 65.842L62.314 102.994C62.314 104.578 62.722 105.934 63.538 107.062C64.354 108.19 65.698 108.754 67.57 108.754C68.962 108.754 70.69 108.094 72.754 106.774C74.818 105.454 76.498 103.378 77.794 100.546L78.154 100.69C76.714 104.05 74.254 106.63 70.774 108.43C67.294 110.23 63.25 111.13 58.642 111.13L58.642 111.13ZM20.77 111.13C14.53 111.13 9.55 109.534 5.83 106.342C2.11 103.15 0.25 98.818 0.25 93.346C0.25 86.914 3.01 81.982 8.53 78.55C14.05 75.118 21.922 73.402 32.146 73.402L48.85 73.402L48.85 73.762L37.114 73.762C33.466 73.762 30.55 74.758 28.366 76.75C26.182 78.742 24.61 81.118 23.65 83.878C22.69 86.638 22.21 89.218 22.21 91.618C22.21 93.874 22.462 96.07 22.966 98.206C23.47 100.342 24.322 102.094 25.522 103.462C26.722 104.83 28.33 105.514 30.346 105.514C32.506 105.514 34.486 104.734 36.286 103.174C38.086 101.614 39.514 99.226 40.57 96.01C41.626 92.794 42.154 88.69 42.154 83.698L42.514 83.698C42.514 89.41 41.722 94.318 40.138 98.422C38.554 102.526 36.154 105.67 32.938 107.854C29.722 110.038 25.666 111.13 20.77 111.13L20.77 111.13ZM84.562 111.13L84.562 88.81L84.922 88.81C86.122 93.226 88.03 97.078 90.646 100.366C93.262 103.654 96.43 106.198 100.15 107.998C103.87 109.798 107.986 110.698 112.498 110.698C115.57 110.698 118.306 110.254 120.706 109.366C123.106 108.478 124.978 107.194 126.322 105.514C127.666 103.834 128.338 101.77 128.338 99.322C128.338 96.634 127.318 94.51 125.278 92.95C123.238 91.39 120.61 90.07 117.394 88.99C114.178 87.91 110.758 86.806 107.134 85.678C103.51 84.55 100.09 83.11 96.874 81.358C93.658 79.606 91.03 77.266 88.99 74.338C86.95 71.41 85.93 67.594 85.93 62.89C85.93 59.098 86.842 55.63 88.666 52.486C90.49 49.342 93.07 46.834 96.406 44.962C99.742 43.09 103.69 42.154 108.25 42.154C111.658 42.154 114.73 42.706 117.466 43.81C120.202 44.914 122.602 46.354 124.666 48.13L133.45 42.01L133.81 42.01L133.81 62.17L133.45 62.17C132.154 58.762 130.378 55.57 128.122 52.594C125.866 49.618 123.094 47.194 119.806 45.322C116.518 43.45 112.69 42.514 108.322 42.514C105.538 42.514 103.162 42.922 101.194 43.738C99.226 44.554 97.714 45.682 96.658 47.122C95.602 48.562 95.074 50.194 95.074 52.018C95.074 54.658 96.13 56.77 98.242 58.354C100.354 59.938 103.078 61.318 106.414 62.494C109.75 63.67 113.278 64.858 116.998 66.058C120.718 67.258 124.246 68.746 127.582 70.522C130.918 72.298 133.642 74.614 135.754 77.47C137.866 80.326 138.922 84.01 138.922 88.522C138.922 93.514 137.674 97.69 135.178 101.05C132.682 104.41 129.442 106.93 125.458 108.61C121.474 110.29 117.274 111.13 112.858 111.13C109.066 111.13 105.574 110.53 102.382 109.33C99.19 108.13 96.346 106.426 93.85 104.218L84.922 111.13L84.562 111.13ZM175.714 43.81L198.826 89.53L187.666 113.218L151.666 43.81L143.242 43.81L143.242 43.45L189.682 43.45L189.682 43.81L175.714 43.81ZM231.226 43.45L231.226 43.81L219.562 43.81L176.722 137.77C175.474 140.458 173.938 142.678 172.114 144.43C170.29 146.182 167.746 147.058 164.482 147.058C162.658 147.058 160.906 146.65 159.226 145.834C157.546 145.018 156.154 143.806 155.05 142.198C153.946 140.59 153.394 138.586 153.394 136.186C153.394 133.978 153.922 132.034 154.978 130.354C156.034 128.674 157.438 127.354 159.19 126.394C160.942 125.434 162.874 124.954 164.986 124.954C167.146 124.954 169.138 125.554 170.962 126.754C172.786 127.954 174.19 129.574 175.174 131.614C176.158 133.654 176.434 135.946 176.002 138.49L219.058 43.81L204.802 43.81L204.802 43.45L231.226 43.45ZM262.546 78.01C262.546 73.018 262.846 68.362 263.446 64.042C264.046 59.722 265.078 55.906 266.542 52.594C268.006 49.282 270.022 46.69 272.59 44.818C275.158 42.946 278.386 42.01 282.274 42.01C285.586 42.01 288.394 42.742 290.698 44.206C293.002 45.67 294.766 47.566 295.99 49.894C297.214 52.222 297.826 54.682 297.826 57.274C297.826 60.634 296.734 63.538 294.55 65.986C292.366 68.434 289.474 69.658 285.874 69.658C282.226 69.658 279.286 68.542 277.054 66.31C274.822 64.078 273.706 61.45 273.706 58.426C273.706 54.874 274.858 51.97 277.162 49.714C279.466 47.458 282.298 46.33 285.658 46.33C288.01 46.33 290.086 46.858 291.886 47.914C293.686 48.97 295.102 50.326 296.134 51.982C297.166 53.638 297.682 55.402 297.682 57.274L297.394 57.274C297.394 54.778 296.806 52.39 295.63 50.11C294.454 47.83 292.738 45.97 290.482 44.53C288.226 43.09 285.49 42.37 282.274 42.37C278.434 42.37 275.254 43.318 272.734 45.214C270.214 47.11 268.234 49.702 266.794 52.99C265.354 56.278 264.334 60.07 263.734 64.366C263.134 68.662 262.834 73.21 262.834 78.01L262.546 78.01ZM262.834 43.45L262.834 109.33L273.49 109.33L273.49 109.69L233.314 109.69L233.314 109.33L242.746 109.33L242.746 43.81L233.314 43.81L233.314 43.45L262.834 43.45ZM364.21 111.13C361.138 111.13 358.354 110.734 355.858 109.942C353.362 109.15 351.382 107.83 349.918 105.982C348.454 104.134 347.722 101.65 347.722 98.53L347.722 65.842C347.722 62.386 347.41 58.906 346.786 55.402C346.162 51.898 344.89 48.97 342.97 46.618C341.05 44.266 338.17 43.09 334.33 43.09C332.026 43.09 329.542 43.366 326.878 43.918C324.214 44.47 321.694 45.346 319.318 46.546C316.942 47.746 315.01 49.258 313.522 51.082C312.034 52.906 311.29 55.114 311.29 57.706L311.002 57.706C311.002 54.682 312.142 52.246 314.422 50.398C316.702 48.55 319.33 47.626 322.306 47.626C325.474 47.626 328.234 48.466 330.586 50.146C332.938 51.826 334.114 54.25 334.114 57.418C334.114 60.826 332.914 63.406 330.514 65.158C328.114 66.91 325.378 67.786 322.306 67.786C319.042 67.786 316.318 66.886 314.134 65.086C311.95 63.286 310.858 60.826 310.858 57.706C310.858 55.018 311.638 52.702 313.198 50.758C314.758 48.814 316.846 47.218 319.462 45.97C322.078 44.722 324.994 43.798 328.21 43.198C331.426 42.598 334.666 42.298 337.93 42.298C345.274 42.298 351.142 43.318 355.534 45.358C359.926 47.398 363.082 50.194 365.002 53.746C366.922 57.298 367.882 61.33 367.882 65.842L367.882 102.994C367.882 104.578 368.29 105.934 369.106 107.062C369.922 108.19 371.266 108.754 373.138 108.754C374.53 108.754 376.258 108.094 378.322 106.774C380.386 105.454 382.066 103.378 383.362 100.546L383.722 100.69C382.282 104.05 379.822 106.63 376.342 108.43C372.862 110.23 368.818 111.13 364.21 111.13L364.21 111.13ZM326.338 111.13C320.098 111.13 315.118 109.534 311.398 106.342C307.678 103.15 305.818 98.818 305.818 93.346C305.818 86.914 308.578 81.982 314.098 78.55C319.618 75.118 327.49 73.402 337.714 73.402L354.418 73.402L354.418 73.762L342.682 73.762C339.034 73.762 336.118 74.758 333.934 76.75C331.75 78.742 330.178 81.118 329.218 83.878C328.258 86.638 327.778 89.218 327.778 91.618C327.778 93.874 328.03 96.07 328.534 98.206C329.038 100.342 329.89 102.094 331.09 103.462C332.29 104.83 333.898 105.514 335.914 105.514C338.074 105.514 340.054 104.734 341.854 103.174C343.654 101.614 345.082 99.226 346.138 96.01C347.194 92.794 347.722 88.69 347.722 83.698L348.082 83.698C348.082 89.41 347.29 94.318 345.706 98.422C344.122 102.526 341.722 105.67 338.506 107.854C335.29 110.038 331.234 111.13 326.338 111.13L326.338 111.13ZM398.554 109.69L398.554 36.034C398.554 29.266 399.982 23.182 402.838 17.782C405.694 12.382 409.726 8.11001 414.934 4.966C420.142 1.82201 426.298 0.250004 433.402 0.25C437.626 0.250004 441.214 1.10201 444.166 2.80601C447.118 4.51002 449.374 6.62202 450.934 9.14201C452.494 11.662 453.274 14.17 453.274 16.666C453.274 20.506 452.086 23.434 449.71 25.45C447.334 27.466 444.682 28.474 441.754 28.474C440.074 28.474 438.37 28.102 436.642 27.358C434.914 26.614 433.462 25.45 432.286 23.866C431.11 22.282 430.522 20.242 430.522 17.746C430.522 14.29 431.662 11.614 433.942 9.718C436.222 7.822 438.706 6.874 441.394 6.874C443.266 6.874 445.102 7.258 446.902 8.02601C448.702 8.79401 450.19 9.91001 451.366 11.374C452.542 12.838 453.13 14.602 453.13 16.666L452.914 16.666C452.914 13.738 452.062 11.074 450.358 8.674C448.654 6.27401 446.398 4.35401 443.59 2.91401C440.782 1.47401 437.746 0.754002 434.482 0.753998C430.498 0.754002 427.294 2.086 424.87 4.75C422.446 7.41401 420.694 11.086 419.614 15.766C418.534 20.446 417.994 25.834 417.994 31.93L417.994 109.69L398.554 109.69ZM386.314 110.33L386.314 109.33L434.554 109.33L434.554 110.33L386.314 110.33ZM386.314 44.45L386.314 43.45L437.434 43.45L437.434 44.45L386.314 44.45ZM460.546 111.13C458.146 111.13 455.974 110.542 454.03 109.366C452.086 108.19 450.526 106.618 449.35 104.65C448.174 102.682 447.586 100.522 447.586 98.17C447.586 95.818 448.174 93.646 449.35 91.654C450.526 89.662 452.086 88.078 454.03 86.902C455.974 85.726 458.146 85.138 460.546 85.138C462.898 85.138 465.07 85.726 467.062 86.902C469.054 88.078 470.626 89.662 471.778 91.654C472.93 93.646 473.506 95.818 473.506 98.17C473.506 100.522 472.93 102.682 471.778 104.65C470.626 106.618 469.054 108.19 467.062 109.366C465.07 110.542 462.898 111.13 460.546 111.13L460.546 111.13Z" id="Path" fill="#FFFFFF" fill-rule="evenodd" stroke="none" />
    <g id="Vector">
      <g clip-path="url(#clip_1)">
        <use xlink:href="#path_1" fill="none" stroke="#FFFFFF" stroke-width="2" />
      </g>
    </g>
  </g>
</svg>